<svg viewBox="0 0 309 356" fill="none" xmlns="http://www.w3.org/2000/svg" id="group1">
        <path d="M150 300C67.0869 300 0 232.814 0 150C0 67.0869 67.1865 0 150 0C232.913 0 300 67.1865 300 150C300.1 232.913 232.913 300 150 300Z" fill="#F7C0B5"/>
        <path d="M242 255.9C241.3 256.4 240.5 256.9 239.8 257.4C239 257.9 238.3 258.4 237.5 258.8C236.8 259.2 236.2 259.6 235.5 260C235.4 260.1 235.3 260.1 235.2 260.2C232.9 261.6 230.5 262.9 228.1 264.1C227.4 264.5 226.6 264.9 225.9 265.2C225.9 265.2 225.8 265.3 225.7 265.3C224.9 265.7 224.1 266.1 223.3 266.5C221.7 267.3 220 268 218.4 268.7C217.6 269.1 216.7 269.4 215.9 269.7C215.1 270 214.2 270.4 213.4 270.7C212.6 271 211.7 271.4 210.9 271.7C210.9 271.7 210.9 271.7 210.8 271.7C210 272 209.1 272.3 208.3 272.6C206.5 273.2 204.6 273.8 202.8 274.4C202.2 274.6 201.5 274.8 200.9 275C199 275.6 197.1 276.1 195.2 276.5C194.5 276.7 193.8 276.8 193 277C191.2 277.4 189.3 277.8 187.5 278.2C187.1 278.3 186.8 278.3 186.4 278.4C185.8 278.5 185.1 278.6 184.5 278.7C183.6 278.8 182.8 279 181.9 279.1C181.5 279.2 181.1 279.2 180.7 279.3C180.2 279.4 179.6 279.5 179 279.5C177.4 279.7 175.7 279.9 174.1 280.1C173.6 280.2 173 280.2 172.5 280.3H172.4C171.7 280.4 171 280.4 170.3 280.5C169.6 280.6 168.9 280.6 168.2 280.6C167.8 280.6 167.3 280.7 166.9 280.7C166.1 280.7 165.4 280.8 164.7 280.8C163.7 280.8 162.8 280.9 161.8 280.9C160.8 280.9 159.9 280.9 158.9 280.9C158.2 280.9 157.5 280.9 156.8 280.9C114.7 280.3 76.6996 262.4 49.6996 234C49.6996 234 49.6996 233.9 49.5996 233.9C52.6996 227.8 64.1996 216.8 76.1996 207.7C91.3996 196.2 112.9 189.1 112.9 189.1C112.9 189.1 127 186.8 179.3 197.7C219.2 206.1 236.2 240.2 242 255.9Z" fill="#FEE4BF"/>
        <path d="M190.4 225.4C188.3 235.7 174.7 241.8 151.8 232.6C123.7 221.2 112.9 189.1 112.9 189.1C111.4 166.1 107.9 146.4 107.9 146.4C140.4 143.6 178.8 181.6 178.8 181.6L183.2 200.4C183.6 202 184.4 203.4 185.6 204.4C187.7 208 191.8 218.8 190.4 225.4Z" fill="#FEE4BF"/>
        <path d="M185.6 204.5C166.5 203.5 152.4 200.7 137.3 173.6C150.1 184.9 165.2 189.2 181.1 191.2L183.2 200.4C183.6 202.1 184.4 203.5 185.6 204.5Z" fill="#EFBDA5"/>
        <path d="M225.1 83.9999C226.9 92.3999 227.8 99.1999 222.9 121.6C218 144 227.4 166.4 203.8 186.9C187.9 200.7 160.1 203.3 137.9 188.2C130.4 183.1 123.5 176 117.9 166.7C113.5 159.4 108.4 152.5 102.7 146.2C94.7996 137.6 85.2996 120.3 89.9996 89.6999C97.5996 39.8999 146.9 34.1999 176 39.6999C205.1 45.1999 220.2 61.7999 225.1 83.9999Z" fill="#FEE4BF"/>
        <path d="M129.4 123.1C129.4 123.1 126.3 108.1 111.7 109.9C99.0996 111.5 94.6996 141.7 123.3 150.1" fill="#FEE4BF"/>
        <path d="M122.4 136.4C122.4 136.4 118.8 134.1 119.2 130.1C119.8 125.4 119.2 122.5 117 121.6C111.5 119.3 110.4 125.7 110.6 126.5" stroke="#423232" stroke-width="3" stroke-miterlimit="10" stroke-linecap="round" stroke-linejoin="round"/>
        <path d="M198.7 146.1C198.7 146.1 202.5 146.3 206.1 142C208.1 139.6 209.8 136.6 208.7 135.7C207.6 134.7 189.5 137.5 188.3 139.9C187.1 142.3 194.1 146.1 198.7 146.1Z" fill="#EFBDA5"/>
        <path d="M201.7 112.5C201.7 112.5 201.9 122 208 132.6C210.7 137.3 206.6 145 197.7 146.3" stroke="#423232" stroke-width="3" stroke-miterlimit="10" stroke-linecap="round" stroke-linejoin="round"/>
        <path opacity="0.42" d="M147.5 151.2C153.188 151.2 157.8 147.394 157.8 142.7C157.8 138.006 153.188 134.2 147.5 134.2C141.811 134.2 137.2 138.006 137.2 142.7C137.2 147.394 141.811 151.2 147.5 151.2Z" fill="#F2A5B2"/>
        <path opacity="0.42" d="M221.3 134.4C221 140 221.1 145.5 220.7 151C216.3 150 213.1 146.7 213.1 142.8C213.1 138.6 216.6 135.2 221.3 134.4Z" fill="#F2A5B2"/>
        <path d="M172.433 122.048C170.033 121.948 168.233 119.948 168.433 117.548L168.533 114.748C168.633 112.348 170.633 110.548 173.033 110.748C175.433 110.848 177.233 112.848 177.033 115.248L176.933 118.048C176.833 120.348 174.833 122.148 172.433 122.048Z" fill="#423232"/>
        <path d="M214.533 123.547C212.333 123.447 210.633 121.547 210.733 119.347L210.833 116.747C210.933 114.547 212.833 112.847 215.033 112.947C217.233 113.047 218.933 114.947 218.833 117.147L218.733 119.747C218.633 121.947 216.733 123.647 214.533 123.547Z" fill="#423232"/>
        <path d="M182.133 116.247C182.133 116.247 179.533 112.547 175.033 111.847C171.333 111.247 167.233 113.047 166.633 115.147" stroke="#423232" stroke-width="3" stroke-miterlimit="10" stroke-linecap="round" stroke-linejoin="round"/>
        <path d="M211.633 117.148C211.633 117.148 211.633 113.948 216.233 113.948C220.033 113.948 221.633 117.448 221.633 117.448" stroke="#423232" stroke-width="3" stroke-miterlimit="10" stroke-linecap="round" stroke-linejoin="round"/>
        <path d="M186.233 100.147C188.333 100.847 190.433 98.9474 190.033 96.6474C189.833 95.4474 189.333 94.2474 188.333 93.3474C185.333 90.6474 172.933 88.2475 165.433 91.7475C158.833 94.9475 176.633 96.9474 186.233 100.147Z" fill="#423232"/>
        <path d="M216.133 101.747C214.433 102.347 212.633 100.547 212.933 98.4475C213.033 97.3475 213.433 96.2475 214.233 95.4475C216.633 93.0475 224.833 91.1475 230.033 94.8475C234.533 97.9475 223.933 98.8475 216.133 101.747Z" fill="#423232"/>
        <path d="M215.101 214.7C215.101 214.7 199.601 200.2 184.301 196.7C184.301 196.7 186.101 222.5 167.901 220.6C138.501 217.5 110.801 186.3 110.801 186.3C110.801 186.3 91.5009 191.7 75.9009 203.6C75.9009 203.6 78.0009 234.3 113.101 249.5C148.201 264.7 197.101 257.2 208.701 247.4C220.301 237.6 218.001 217.9 215.101 214.7Z" fill="white"/>
        <path d="M67.3009 210.2C67.3009 210.2 47.9009 220.9 37.3009 251.4C26.7009 281.9 27.0009 327.3 27.0009 327.3H255.201C255.201 327.3 248.801 252.4 226.201 227.4C226.201 227.4 227.701 249.8 183.401 252.1C139.101 254.4 85.8009 240.3 84.5009 232.1C83.3009 223.7 67.3009 210.2 67.3009 210.2Z" fill="white"/>
        <path d="M235.501 329.1C172.701 358.1 69.3008 331.9 69.3008 331.9C69.3008 331.9 67.2008 306.4 74.8008 260.5C75.1008 258.4 75.4008 256.3 75.6008 254.4C77.8008 233.6 72.7008 219.3 67.3008 210.3C67.3008 208 69.7008 206.4 72.4008 204.1C73.5008 203.2 93.2008 191 94.0008 191.6C95.4008 193.6 96.7008 195.6 97.8008 197.7C109.001 218.4 112.901 240.6 136.201 243.8C159.201 247 181.401 246.5 197.301 243C212.601 239.6 202.401 214.2 195.601 201.7C195.301 201.2 195.301 201 195.001 200.8C197.301 199.3 224.001 219.8 226.101 227.4C230.501 238.4 231.701 246.6 233.001 257.3C237.301 292.4 235.501 329.1 235.501 329.1Z" fill="#77A0E0"/>
        <path d="M98.2008 243.1C101.735 243.1 104.601 240.235 104.601 236.7C104.601 233.165 101.735 230.3 98.2008 230.3C94.6662 230.3 91.8008 233.165 91.8008 236.7C91.8008 240.235 94.6662 243.1 98.2008 243.1Z" fill="#647184"/>
        <path d="M217.501 245.8C220.704 245.8 223.301 243.203 223.301 240C223.301 236.797 220.704 234.2 217.501 234.2C214.298 234.2 211.701 236.797 211.701 240C211.701 243.203 214.298 245.8 217.501 245.8Z" fill="#647184"/>
        <path d="M142.901 254.9C158.101 255.8 177.101 256.1 193.001 253.8C203.701 252.3 213.401 260.2 214.201 270.9C214.901 281.5 215.201 294.4 213.501 305.7C210.001 330.1 122.701 328.9 121.301 307.4C120.501 296.3 119.801 287.3 119.001 279.9C117.501 266 128.901 254.1 142.901 254.9Z" stroke="#647184" stroke-width="3" stroke-miterlimit="10"/>
        <path d="M172.001 220.5C172.001 220.5 153.701 242.7 148.101 241C142.501 239.3 107.701 220.8 102.201 189.2C102.201 189.2 106.501 182.2 110.301 180C110.301 180 120.801 198.5 139.801 209.6C157.901 220.1 172.001 220.5 172.001 220.5Z" fill="white"/>
        <path d="M172.001 220.5C172.001 220.5 153.701 242.7 148.101 241C142.501 239.3 107.701 220.8 102.201 189.2" stroke="#D0D6DD" stroke-width="3" stroke-miterlimit="10" stroke-linecap="round" stroke-linejoin="round"/>
        <path d="M172.001 220.5C172.001 220.5 186.201 237.1 190.901 237.3C195.601 237.5 197.601 208.3 183.501 193.5C183.501 193.5 181.301 194.1 180.401 194.3C180.301 194.2 187.401 215.5 172.001 220.5Z" fill="white"/>
        <path d="M172.001 220.5C172.001 220.5 186.201 237.1 190.901 237.3C195.601 237.5 197.601 208.3 183.501 193.5" stroke="#D0D6DD" stroke-width="3" stroke-miterlimit="10" stroke-linecap="round" stroke-linejoin="round"/>
        <path d="M170.601 222.1C170.601 222.1 167.801 225.2 168.801 232C169.801 238.7 169.601 245.4 169.601 245.4" stroke="#D0D6DD" stroke-width="3" stroke-miterlimit="10" stroke-linecap="round" stroke-linejoin="round"/>
        <path d="M175.701 237.1C176.971 237.1 178.001 236.07 178.001 234.8C178.001 233.53 176.971 232.5 175.701 232.5C174.431 232.5 173.401 233.53 173.401 234.8C173.401 236.07 174.431 237.1 175.701 237.1Z" fill="#D0D6DD"/>
        <path d="M251.223 189.807C245.623 177.407 241.323 179.107 245.223 167.907C249.123 156.807 244.123 148.907 233.823 138.407C224.023 128.407 223.023 117.507 223.323 115.907C222.423 120.107 222.023 124.407 221.823 128.607C221.523 134.207 221.623 139.707 221.223 145.207C220.423 157.507 217.523 169.607 204.323 181.007C198.523 186.007 191.123 189.607 182.923 191.307C180.723 198.007 184.023 202.807 191.223 203.607C198.423 204.407 201.423 215.207 217.723 220.307C242.123 228.207 256.823 202.207 251.223 189.807Z" fill="#423232"/>
        <path d="M205.623 68.8071C207.723 69.9071 209.523 68.9071 210.623 66.7071C222.223 64.9071 224.923 88.1071 225.323 89.5071C225.723 91.0071 225.923 95.2071 225.123 106.707C224.623 113.107 261.823 67.7071 227.823 48.5071C230.323 44.8071 228.523 26.4071 207.623 21.9071C200.123 20.3071 190.323 27.3071 178.023 24.6071C129.923 13.9071 80.0235 24.1071 83.9235 87.6071C84.8235 101.507 85.7235 116.507 62.1235 126.507C34.7235 138.107 36.1235 168.407 55.4235 174.607C63.4235 177.207 37.0235 195.207 52.4235 211.207C60.4235 219.607 74.7235 202.607 89.2235 211.807C111.123 225.707 122.023 219.407 126.323 213.907C135.123 202.707 124.223 180.207 124.223 180.207C124.223 180.207 128.523 173.307 129.923 169.607C136.723 151.407 120.523 143.207 120.523 143.207C95.5235 133.607 100.023 105.707 112.223 104.107C125.023 102.507 129.023 113.907 129.723 116.707C129.723 116.707 141.023 132.307 162.823 96.7071C184.423 61.1071 196.223 63.7071 205.623 68.8071Z" fill="#423232"/>
        <path d="M195.5 168C189.8 171.4 179.7 167.7 175 162" stroke="#423232" stroke-width="3" stroke-miterlimit="10" stroke-linecap="round" stroke-linejoin="round"/>
      </svg>