 <svg  viewBox="0 0 312 349" fill="none" xmlns="http://www.w3.org/2000/svg" id="group4">
        <path d="M150 300C67.0869 300 0 232.814 0 150C0 67.0869 67.1865 0 150 0C232.913 0 300 67.1865 300 150C300.1 232.913 232.913 300 150 300Z" fill="#F4DA92"/>
        <path d="M242 245.9C241.3 246.4 240.5 246.9 239.8 247.4C239 247.9 238.3 248.4 237.5 248.8C236.8 249.2 236.2 249.6 235.5 250C235.4 250.1 235.3 250.1 235.2 250.2C232.9 251.6 230.5 252.9 228.1 254.1C227.4 254.5 226.6 254.9 225.9 255.2C225.9 255.2 225.8 255.3 225.7 255.3C224.9 255.7 224.1 256.1 223.3 256.5C221.7 257.3 220 258 218.4 258.7C217.6 259.1 216.7 259.4 215.9 259.7C215.1 260 214.2 260.4 213.4 260.7C212.6 261 211.7 261.4 210.9 261.7C210.9 261.7 210.9 261.7 210.8 261.7C210 262 209.1 262.3 208.3 262.6C206.5 263.2 204.6 263.8 202.8 264.4C202.2 264.6 201.5 264.8 200.9 265C199 265.6 197.1 266.1 195.2 266.5C194.5 266.7 193.8 266.8 193 267C191.2 267.4 189.3 267.8 187.5 268.2C187.1 268.3 186.8 268.3 186.4 268.4C185.8 268.5 185.1 268.6 184.5 268.7C183.6 268.8 182.8 269 181.9 269.1C181.5 269.2 181.1 269.2 180.7 269.3C180.2 269.4 179.6 269.5 179 269.5C177.4 269.7 175.7 269.9 174.1 270.1C173.6 270.2 173 270.2 172.5 270.3H172.4C171.7 270.4 171 270.4 170.3 270.5C169.6 270.6 168.9 270.6 168.2 270.6C167.8 270.6 167.3 270.7 166.9 270.7C166.1 270.7 165.4 270.8 164.7 270.8C163.7 270.8 162.8 270.9 161.8 270.9C160.8 270.9 159.9 270.9 158.9 270.9C158.2 270.9 157.5 270.9 156.8 270.9C114.7 270.3 76.6996 252.4 49.6996 224C49.6996 224 49.6996 223.9 49.5996 223.9C52.6996 217.8 64.1996 206.8 76.1996 197.7C91.3996 186.2 112.9 179.1 112.9 179.1C112.9 179.1 127 176.8 179.3 187.7C219.2 196.1 236.2 230.2 242 245.9Z" fill="#FEE4BF"/>
        <path d="M190.4 215.4C188.3 225.7 174.7 231.8 151.8 222.6C123.7 211.2 112.9 179.1 112.9 179.1C111.4 156.1 107.9 136.4 107.9 136.4C140.4 133.6 178.8 171.6 178.8 171.6L183.2 190.4C183.6 192 184.4 193.4 185.6 194.4C187.7 198 191.8 208.8 190.4 215.4Z" fill="#FEE4BF"/>
        <path d="M185.6 194.5C166.5 193.5 152.4 190.7 137.3 163.6C150.1 174.9 165.2 179.2 181.1 181.2L183.2 190.4C183.6 192.1 184.4 193.5 185.6 194.5Z" fill="#EFBDA5"/>
        <path d="M225.1 73.9999C226.9 82.3999 227.8 89.1999 222.9 111.6C218 134 227.4 156.4 203.8 176.9C187.9 190.7 160.1 193.3 137.9 178.2C130.4 173.1 123.5 166 117.9 156.7C113.5 149.4 108.4 142.5 102.7 136.2C94.7996 127.6 85.2996 110.3 89.9996 79.6999C97.5996 29.8999 146.9 24.1999 176 29.6999C205.1 35.1999 220.2 51.7999 225.1 73.9999Z" fill="#FEE4BF"/>
        <path d="M129.4 113.1C129.4 113.1 126.3 98.0999 111.7 99.8999C99.0996 101.5 94.6996 131.7 123.3 140.1" fill="#FEE4BF"/>
        <path d="M122.4 126.4C122.4 126.4 118.8 124.1 119.2 120.1C119.8 115.4 119.2 112.5 117 111.6C111.5 109.3 110.4 115.7 110.6 116.5" stroke="#423232" stroke-width="3" stroke-miterlimit="10" stroke-linecap="round" stroke-linejoin="round"/>
        <path d="M198.7 136.1C198.7 136.1 202.5 136.3 206.1 132C208.1 129.6 209.8 126.6 208.7 125.7C207.6 124.7 189.5 127.5 188.3 129.9C187.1 132.3 194.1 136.1 198.7 136.1Z" fill="#EFBDA5"/>
        <path d="M201.7 102.5C201.7 102.5 201.9 112 208 122.6C210.7 127.3 206.6 135 197.7 136.3" stroke="#423232" stroke-width="3" stroke-miterlimit="10" stroke-linecap="round" stroke-linejoin="round"/>
        <path opacity="0.42" d="M147.5 141.2C153.188 141.2 157.8 137.394 157.8 132.7C157.8 128.006 153.188 124.2 147.5 124.2C141.811 124.2 137.2 128.006 137.2 132.7C137.2 137.394 141.811 141.2 147.5 141.2Z" fill="#F2A5B2"/>
        <path opacity="0.42" d="M221.3 124.4C221 130 221.1 135.5 220.7 141C216.3 140 213.1 136.7 213.1 132.8C213.1 128.6 216.6 125.2 221.3 124.4Z" fill="#F2A5B2"/>
        <path d="M172.433 115.048C170.033 114.948 168.233 112.948 168.433 110.548L168.533 107.748C168.633 105.348 170.633 103.548 173.033 103.748C175.433 103.848 177.233 105.848 177.033 108.248L176.933 111.048C176.833 113.348 174.833 115.148 172.433 115.048Z" fill="#423232"/>
        <path d="M214.533 116.547C212.333 116.447 210.633 114.547 210.733 112.347L210.833 109.747C210.933 107.547 212.833 105.847 215.033 105.947C217.233 106.047 218.933 107.947 218.833 110.147L218.733 112.747C218.633 114.947 216.733 116.647 214.533 116.547Z" fill="#423232"/>
        <path d="M182.133 109.247C182.133 109.247 179.533 105.547 175.033 104.847C171.333 104.247 167.233 106.047 166.633 108.147" stroke="#423232" stroke-width="3" stroke-miterlimit="10" stroke-linecap="round" stroke-linejoin="round"/>
        <path d="M211.633 110.148C211.633 110.148 211.633 106.948 216.233 106.948C220.033 106.948 221.633 110.448 221.633 110.448" stroke="#423232" stroke-width="3" stroke-miterlimit="10" stroke-linecap="round" stroke-linejoin="round"/>
        <path d="M186.233 93.1474C188.333 93.8474 190.433 91.9474 190.033 89.6474C189.833 88.4474 189.333 87.2474 188.333 86.3474C185.333 83.6474 172.933 81.2475 165.433 84.7475C158.833 87.9475 176.633 89.9474 186.233 93.1474Z" fill="#423232"/>
        <path d="M216.133 94.7475C214.433 95.3475 212.633 93.5475 212.933 91.4475C213.033 90.3475 213.433 89.2475 214.233 88.4475C216.633 86.0475 224.833 84.1475 230.033 87.8475C234.533 90.9475 223.933 91.8475 216.133 94.7475Z" fill="#423232"/>
        <path d="M193.5 158C187.8 161.4 177.7 157.7 173 152" stroke="#423232" stroke-width="3" stroke-miterlimit="10" stroke-linecap="round" stroke-linejoin="round"/>
        <path d="M223.347 100.576C226.047 85.3763 225.247 79.3763 223.647 72.2763C223.147 70.0763 222.547 67.9763 221.847 65.8763C216.547 61.6763 210.947 58.9763 202.447 57.7763C179.547 54.6763 161.447 56.7763 142.147 60.9763C130.047 63.5763 132.547 105.376 127.847 110.876C127.047 108.076 123.147 96.6763 110.347 98.2763C98.2469 99.7763 93.6469 127.776 118.647 137.376C118.447 142.876 113.347 153.076 109.247 155.376C109.247 155.376 108.547 148.076 100.547 138.476C92.5469 128.876 76.5469 103.976 87.3469 67.5763C98.1469 31.1763 147.047 12.1763 192.547 30.6763C200.347 33.8763 206.747 38.3763 211.847 43.0763C223.847 54.0763 230.247 70.0763 228.347 86.1763C227.847 91.5763 226.347 96.7763 223.347 100.576Z" fill="#423232"/>
        <path d="M207.747 55.0763C207.747 55.0763 178.247 100.276 123.247 86.2763C123.247 86.2763 112.547 59.3763 135.847 49.0763C159.247 38.8763 202.147 46.0763 207.747 55.0763Z" fill="#423232"/>
        <path d="M204.647 55.6763C204.647 55.6763 208.447 66.1763 215.947 74.6763C220.847 80.1763 227.247 84.7763 235.247 84.9763C235.247 84.9763 237.747 57.7763 219.947 47.1763C202.147 36.4763 204.647 55.6763 204.647 55.6763Z" fill="#423232"/>
        <path d="M131.547 38.3763C131.547 38.3763 99.3468 -11.7237 71.0468 24.5763C42.7468 60.8763 73.6468 155.676 56.4468 184.176C56.4468 184.176 76.1468 169.876 81.3468 141.876C81.3468 141.876 81.9468 153.476 78.4468 169.676C78.4468 169.676 99.3468 145.576 99.3468 116.676C99.3468 87.7763 120.247 45.7763 131.547 38.3763Z" fill="#423232"/>
        <path d="M225.147 94.7763C228.747 110.076 225.147 136.576 225.147 136.576C225.147 136.576 269.147 66.6763 233.547 40.1763C203.547 17.7763 138.847 40.5763 138.847 40.5763C138.847 40.5763 199.547 25.9763 211.347 53.8763C222.147 79.0763 223.347 70.3763 226.747 85.3763C227.247 86.8763 224.647 92.6763 225.147 94.7763Z" fill="#423232"/>
        <path d="M252.704 227.778C238.504 209.478 216.504 201.878 204.404 197.378C203.404 192.378 201.504 186.878 198.504 181.578C193.904 184.378 188.604 186.478 183.104 187.578L183.904 190.878C184.304 192.478 186.304 199.878 183.204 209.378C180.604 217.378 170.104 220.978 152.304 212.878C117.604 197.178 113.604 179.478 113.604 179.478C113.004 169.878 112.004 160.878 111.104 153.578C100.304 155.978 87.804 160.878 81.004 171.178C72.604 183.778 69.504 196.578 70.304 206.778C55.704 216.078 33.104 230.178 25.704 255.378C16.104 288.178 17.704 308.278 17.704 308.278H276.104C275.804 308.378 272.004 252.678 252.704 227.778Z" fill="#6060D8"/>
        <path d="M98.2039 194.978C98.2039 194.978 104.304 218.678 131.004 235.078" stroke="#423232" stroke-width="3" stroke-miterlimit="10" stroke-linecap="round" stroke-linejoin="round"/>
        <path d="M204.304 197.378C204.304 197.378 211.404 228.078 195.904 242.178" stroke="#423232" stroke-width="3" stroke-miterlimit="10" stroke-linecap="round" stroke-linejoin="round"/>
        <path d="M156.104 237.478C156.104 237.478 150.904 252.678 152.304 263.178" stroke="#423232" stroke-width="3" stroke-miterlimit="10" stroke-linecap="round" stroke-linejoin="round"/>
        <path d="M188.004 236.578C188.004 236.578 191.904 245.078 194.704 258.578" stroke="#423232" stroke-width="3" stroke-miterlimit="10" stroke-linecap="round" stroke-linejoin="round"/>
        <path d="M70.104 206.878C70.104 206.878 78.304 240.278 127.104 250.078" stroke="#423232" stroke-width="3" stroke-miterlimit="10" stroke-linecap="round" stroke-linejoin="round"/>
        <path d="M153.204 265.478L148.804 265.078C147.204 264.878 146.004 263.378 146.304 261.778L147.804 254.278C148.204 252.178 150.204 250.678 152.304 250.978C154.404 251.178 156.104 252.978 156.104 255.178L156.204 262.878C156.204 264.378 154.804 265.678 153.204 265.478Z" fill="white"/>
        <path d="M199.104 260.878L194.904 262.378C193.304 262.978 191.604 261.978 191.304 260.378L189.504 252.978C189.004 250.878 190.104 248.778 192.204 247.978C194.204 247.278 196.504 248.178 197.404 250.078L200.704 256.978C201.404 258.478 200.704 260.278 199.104 260.878Z" fill="white"/>
        <path d="M66.7039 308.378C66.7039 308.378 65.804 286.078 62.804 280.078" stroke="#544D4D" stroke-width="3" stroke-miterlimit="10" stroke-linecap="round" stroke-linejoin="round"/>
        <path d="M243.204 258.578C243.204 258.578 248.804 289.978 246.604 308.378" stroke="#544D4D" stroke-width="3" stroke-miterlimit="10" stroke-linecap="round" stroke-linejoin="round"/>
        <path d="M227.104 288.778C227.104 288.778 212.304 290.978 199.304 290.378" stroke="#544D4D" stroke-width="3" stroke-miterlimit="10" stroke-linecap="round" stroke-linejoin="round"/>
      </svg>