<svg  viewBox="0 0 312 348" fill="none" xmlns="http://www.w3.org/2000/svg" id="group2">
        <path d="M150 300C67.0869 300 0 232.814 0 150C0 67.0869 67.1865 0 150 0C232.913 0 300 67.1865 300 150C300.1 232.913 232.913 300 150 300Z" fill="#B5E2DC"/>
        <path d="M242 241.9C241.3 242.4 240.5 242.9 239.8 243.4C239 243.9 238.3 244.4 237.5 244.8C236.8 245.2 236.2 245.6 235.5 246C235.4 246.1 235.3 246.1 235.2 246.2C232.9 247.6 230.5 248.9 228.1 250.1C227.4 250.5 226.6 250.9 225.9 251.2C225.9 251.2 225.8 251.3 225.7 251.3C224.9 251.7 224.1 252.1 223.3 252.5C221.7 253.3 220 254 218.4 254.7C217.6 255.1 216.7 255.4 215.9 255.7C215.1 256 214.2 256.4 213.4 256.7C212.6 257 211.7 257.4 210.9 257.7C210.9 257.7 210.9 257.7 210.8 257.7C210 258 209.1 258.3 208.3 258.6C206.5 259.2 204.6 259.8 202.8 260.4C202.2 260.6 201.5 260.8 200.9 261C199 261.6 197.1 262.1 195.2 262.5C194.5 262.7 193.8 262.8 193 263C191.2 263.4 189.3 263.8 187.5 264.2C187.1 264.3 186.8 264.3 186.4 264.4C185.8 264.5 185.1 264.6 184.5 264.7C183.6 264.8 182.8 265 181.9 265.1C181.5 265.2 181.1 265.2 180.7 265.3C180.2 265.4 179.6 265.5 179 265.5C177.4 265.7 175.7 265.9 174.1 266.1C173.6 266.2 173 266.2 172.5 266.3H172.4C171.7 266.4 171 266.4 170.3 266.5C169.6 266.6 168.9 266.6 168.2 266.6C167.8 266.6 167.3 266.7 166.9 266.7C166.1 266.7 165.4 266.8 164.7 266.8C163.7 266.8 162.8 266.9 161.8 266.9C160.8 266.9 159.9 266.9 158.9 266.9C158.2 266.9 157.5 266.9 156.8 266.9C114.7 266.3 76.6996 248.4 49.6996 220C49.6996 220 49.6996 219.9 49.5996 219.9C52.6996 213.8 64.1996 202.8 76.1996 193.7C91.3996 182.2 112.9 175.1 112.9 175.1C112.9 175.1 127 172.8 179.3 183.7C219.2 192.1 236.2 226.2 242 241.9Z" fill="#FEE4BF"/>
        <path d="M190.4 211.4C188.3 221.7 174.7 227.8 151.8 218.6C123.7 207.2 112.9 175.1 112.9 175.1C111.4 152.1 107.9 132.4 107.9 132.4C140.4 129.6 178.8 167.6 178.8 167.6L183.2 186.4C183.6 188 184.4 189.4 185.6 190.4C187.7 194 191.8 204.8 190.4 211.4Z" fill="#FEE4BF"/>
        <path d="M185.6 190.5C166.5 189.5 152.4 186.7 137.3 159.6C150.1 170.9 165.2 175.2 181.1 177.2L183.2 186.4C183.6 188.1 184.4 189.5 185.6 190.5Z" fill="#EFBDA5"/>
        <path d="M225.1 69.9999C226.9 78.3999 227.8 85.1999 222.9 107.6C218 130 227.4 152.4 203.8 172.9C187.9 186.7 160.1 189.3 137.9 174.2C130.4 169.1 123.5 162 117.9 152.7C113.5 145.4 108.4 138.5 102.7 132.2C94.7996 123.6 85.2996 106.3 89.9996 75.6999C97.5996 25.8999 146.9 20.1999 176 25.6999C205.1 31.1999 220.2 47.7999 225.1 69.9999Z" fill="#FEE4BF"/>
        <path d="M129.4 109.1C129.4 109.1 126.3 94.0999 111.7 95.8999C99.0996 97.4999 94.6996 127.7 123.3 136.1" fill="#FEE4BF"/>
        <path d="M122.4 122.4C122.4 122.4 118.8 120.1 119.2 116.1C119.8 111.4 119.2 108.5 117 107.6C111.5 105.3 110.4 111.7 110.6 112.5" stroke="#423232" stroke-width="3" stroke-miterlimit="10" stroke-linecap="round" stroke-linejoin="round"/>
        <path d="M198.7 132.1C198.7 132.1 202.5 132.3 206.1 128C208.1 125.6 209.8 122.6 208.7 121.7C207.6 120.7 189.5 123.5 188.3 125.9C187.1 128.3 194.1 132.1 198.7 132.1Z" fill="#EFBDA5"/>
        <path d="M201.7 98.5C201.7 98.5 201.9 108 208 118.6C210.7 123.3 206.6 131 197.7 132.3" stroke="#423232" stroke-width="3" stroke-miterlimit="10" stroke-linecap="round" stroke-linejoin="round"/>
        <path opacity="0.42" d="M147.5 137.2C153.188 137.2 157.8 133.394 157.8 128.7C157.8 124.006 153.188 120.2 147.5 120.2C141.811 120.2 137.2 124.006 137.2 128.7C137.2 133.394 141.811 137.2 147.5 137.2Z" fill="#F2A5B2"/>
        <path opacity="0.42" d="M221.3 120.4C221 126 221.1 131.5 220.7 137C216.3 136 213.1 132.7 213.1 128.8C213.1 124.6 216.6 121.2 221.3 120.4Z" fill="#F2A5B2"/>
        <path d="M172.433 112.048C170.033 111.948 168.233 109.948 168.433 107.548L168.533 104.748C168.633 102.348 170.633 100.548 173.033 100.748C175.433 100.848 177.233 102.848 177.033 105.248L176.933 108.048C176.833 110.348 174.833 112.148 172.433 112.048Z" fill="#423232"/>
        <path d="M214.533 113.547C212.333 113.447 210.633 111.547 210.733 109.347L210.833 106.747C210.933 104.547 212.833 102.847 215.033 102.947C217.233 103.047 218.933 104.947 218.833 107.147L218.733 109.747C218.633 111.947 216.733 113.647 214.533 113.547Z" fill="#423232"/>
        <path d="M182.133 106.247C182.133 106.247 179.533 102.547 175.033 101.847C171.333 101.247 167.233 103.047 166.633 105.147" stroke="#423232" stroke-width="3" stroke-miterlimit="10" stroke-linecap="round" stroke-linejoin="round"/>
        <path d="M211.633 107.148C211.633 107.148 211.633 103.948 216.233 103.948C220.033 103.948 221.633 107.448 221.633 107.448" stroke="#423232" stroke-width="3" stroke-miterlimit="10" stroke-linecap="round" stroke-linejoin="round"/>
        <path d="M186.233 90.1474C188.333 90.8474 190.433 88.9474 190.033 86.6474C189.833 85.4474 189.333 84.2474 188.333 83.3474C185.333 80.6474 172.933 78.2475 165.433 81.7475C158.833 84.9475 176.633 86.9474 186.233 90.1474Z" fill="#423232"/>
        <path d="M216.133 91.7475C214.433 92.3475 212.633 90.5475 212.933 88.4475C213.033 87.3475 213.433 86.2475 214.233 85.4475C216.633 83.0475 224.833 81.1475 230.033 84.8475C234.533 87.9475 223.933 88.8475 216.133 91.7475Z" fill="#423232"/>
        <path d="M191.5 158C185.8 161.4 175.7 157.7 171 152" stroke="#423232" stroke-width="3" stroke-miterlimit="10" stroke-linecap="round" stroke-linejoin="round"/>
        <path d="M275.887 307.244H23.0869C23.0869 307.244 24.5869 260.844 39.7869 227.744C51.2869 202.744 78.3869 188.844 98.5869 181.644C104.287 179.644 109.487 178.144 113.487 177.044C113.487 177.544 113.587 177.944 113.587 178.444C113.587 178.444 124.387 210.544 152.487 221.944C175.387 231.244 188.987 225.044 191.087 214.744C192.387 208.144 188.287 197.344 186.187 193.844C184.987 192.844 184.187 191.344 183.787 189.844L182.987 186.544C184.887 186.144 186.687 185.644 188.487 185.044C189.087 184.844 189.587 184.644 190.187 184.444C203.087 187.844 222.487 195.944 245.387 215.144C271.287 236.844 275.887 307.244 275.887 307.244Z" fill="#5084A9"/>
        <mask id="mask0_407_185" style="mask-type:alpha" maskUnits="userSpaceOnUse" x="23" y="177" width="253" height="131">
          <path d="M275.887 307.244H23.0869C23.0869 307.244 24.5869 260.844 39.7869 227.744C51.2869 202.744 78.3869 188.844 98.5869 181.644C104.287 179.644 109.487 178.144 113.487 177.044C113.487 177.544 113.587 177.944 113.587 178.444C113.587 178.444 124.387 210.544 152.487 221.944C175.387 231.244 188.987 225.044 191.087 214.744C192.387 208.144 188.287 197.344 186.187 193.844C184.987 192.844 184.187 191.344 183.787 189.844L182.987 186.544C184.887 186.144 186.687 185.644 188.487 185.044C189.087 184.844 189.587 184.644 190.187 184.444C203.087 187.844 222.487 195.944 245.387 215.144C271.287 236.844 275.887 307.244 275.887 307.244Z" fill="#CE3E3E"/>
        </mask>
        <g mask="url(#mask0_407_185)">
          <path d="M126.851 194.884L113.416 208.319L126.851 221.754L140.286 208.319L126.851 194.884Z" fill="white"/>
          <path d="M179.467 194.923L166.032 208.358L179.467 221.793L192.902 208.358L179.467 194.923Z" fill="white"/>
          <path d="M74.1644 194.915L60.7295 208.35L74.1644 221.785L87.5993 208.35L74.1644 194.915Z" fill="white"/>
          <path d="M231.45 194.883L218.015 208.318L231.45 221.753L244.885 208.318L231.45 194.883Z" fill="white"/>
          <path d="M102.516 246.926L89.0811 260.361L102.516 273.796L115.951 260.361L102.516 246.926Z" fill="white"/>
          <path d="M155.203 246.895L141.768 260.33L155.203 273.765L168.638 260.33L155.203 246.895Z" fill="white"/>
          <path d="M207.115 246.926L193.68 260.361L207.115 273.795L220.55 260.361L207.115 246.926Z" fill="white"/>
          <path d="M126.86 298.779L113.426 312.214L126.86 325.649L140.295 312.214L126.86 298.779Z" fill="white"/>
          <path d="M179.476 298.819L166.042 312.254L179.476 325.689L192.911 312.254L179.476 298.819Z" fill="white"/>
          <path d="M74.1739 298.81L60.739 312.245L74.1739 325.68L87.6088 312.245L74.1739 298.81Z" fill="white"/>
          <path d="M231.459 298.779L218.024 312.214L231.459 325.649L244.894 312.214L231.459 298.779Z" fill="white"/>
        </g>
        <path d="M174.687 217.844C174.687 217.844 167.787 223.044 169.287 227.944C170.687 232.844 184.087 232.044 186.687 227.944C189.187 223.844 177.987 216.944 174.687 217.844Z" fill="#5084A9"/>
        <path d="M174.587 217.744C174.687 217.844 174.687 217.844 174.787 217.944C174.787 217.844 174.787 217.744 174.787 217.744C174.687 217.644 174.587 217.644 174.587 217.744Z" fill="white"/>
        <path d="M148.087 213.744C119.987 202.344 113.587 178.444 113.587 178.444C113.587 177.944 113.487 177.544 113.487 177.044C113.387 175.544 113.087 171.244 112.887 169.744C111.087 170.344 108.887 171.544 106.887 172.644C103.287 174.744 100.387 177.744 98.587 181.444C98.587 181.544 98.487 181.544 98.487 181.644C98.287 207.944 123.987 228.044 144.087 235.244C156.287 239.644 169.987 233.344 173.887 221.044C174.187 219.944 174.487 218.944 174.687 217.844C174.587 217.744 174.587 217.744 174.487 217.644C167.987 219.044 159.087 218.144 148.087 213.744Z" fill="white"/>
        <path d="M199.187 209.544C197.487 195.644 192.987 190.244 188.587 184.944C186.787 185.544 183.787 186.244 181.887 186.644C181.887 186.644 188.387 195.044 186.687 206.444C185.887 211.844 181.787 215.944 174.787 217.544C174.787 217.644 174.787 217.644 174.687 217.744C177.287 220.744 180.187 223.344 183.387 225.444C188.587 228.944 195.787 226.644 197.887 220.744C199.187 217.344 199.687 213.444 199.187 209.544Z" fill="white"/>
        <path d="M72.5869 307.244L68.0869 270.244" stroke="#544D4D" stroke-width="3" stroke-miterlimit="10" stroke-linecap="round" stroke-linejoin="round"/>
        <path d="M247.187 257.544C247.187 257.544 244.187 264.844 245.087 272.144C245.987 279.444 248.587 290.144 244.887 307.244" stroke="#544D4D" stroke-width="3" stroke-miterlimit="10" stroke-linecap="round" stroke-linejoin="round"/>
        <path d="M225.774 72.4714C225.474 70.9714 225.074 69.3714 224.574 67.8714C224.074 66.3714 222.874 65.0714 221.274 64.7714C216.074 63.8714 211.074 66.4714 203.874 65.4714C180.974 62.3714 165.674 52.6714 144.174 61.0714C121.974 69.6714 134.574 105.471 129.874 110.971C129.074 108.171 125.174 96.7714 112.374 98.3714C100.274 99.8714 95.6742 127.871 120.674 137.471C120.474 142.971 110.574 148.171 102.574 138.571C94.5742 128.971 78.5742 104.071 89.3742 67.6714C100.174 31.2714 149.074 12.2714 194.574 30.7714C202.374 33.9714 207.374 40.8714 213.874 43.1714C227.174 48.0714 227.274 79.6714 225.774 72.4714Z" fill="#423232"/>
        <path d="M120.774 137.571C120.774 137.571 120.574 145.771 112.174 160.971C112.174 160.971 110.174 152.571 105.774 144.871C101.474 137.171 92.9742 121.071 87.7742 104.971C82.5742 88.8713 92.1742 108.871 97.0742 115.571C101.874 122.171 105.074 138.571 120.774 137.571Z" fill="#423232"/>
        <path d="M106.674 129.471C106.674 129.471 103.874 148.171 121.774 171.771C139.674 195.371 140.674 219.571 134.074 245.171C134.074 245.171 123.674 237.471 92.1742 214.871C60.6742 192.271 53.0742 153.671 94.4742 117.271C94.5742 117.271 106.274 119.471 106.674 129.471Z" fill="#423232"/>
        <path d="M178.374 48.7714C182.074 51.0714 186.074 52.5714 190.374 52.8714C195.674 53.2714 203.574 56.8714 215.174 67.3714C228.874 79.7714 222.074 -1.3286 136.774 17.8714C107.574 24.3714 86.7741 50.1714 83.1741 79.0714C82.9741 81.0714 82.7741 83.0714 82.6741 85.0714C81.8741 111.671 103.374 134.871 103.374 134.871C103.374 134.871 94.5741 97.8714 114.674 82.5714C132.874 68.6714 145.574 52.3714 161.474 52.3714C171.074 52.2714 176.174 47.4714 178.374 48.7714Z" fill="#423232"/>
        <path d="M181.174 27.2714C181.174 27.2714 211.474 84.9714 226.474 84.4714C241.474 83.9714 257.074 36.9714 225.274 19.1714C203.074 6.67138 181.174 27.2714 181.174 27.2714Z" fill="#423232"/>
        <path d="M194.674 43.5714C194.674 43.5714 219.474 70.0714 207.774 77.6714C201.074 81.9714 194.674 68.9714 194.674 68.9714C194.674 68.9714 186.774 81.8714 174.174 75.3714C161.574 68.9714 169.974 50.4714 169.974 50.4714C169.974 50.4714 187.074 33.2714 194.674 43.5714Z" fill="#423232"/>
        <path d="M172.474 52.5714C172.474 52.5714 167.974 79.8714 146.774 83.8714C125.574 87.8714 123.074 66.0714 123.074 66.0714C123.074 66.0714 154.474 31.5714 172.474 52.5714Z" fill="#423232"/>
        <path d="M225.374 101.071C225.374 101.071 237.874 93.9714 237.174 76.2714C236.474 58.5714 227.174 70.5714 227.174 70.5714C227.174 70.5714 228.174 86.0714 225.374 101.071Z" fill="#423232"/>
      </svg>