 <svg viewBox="0 0 312 345" fill="none" xmlns="http://www.w3.org/2000/svg" id="group3">
        <path d="M150 300C67.0869 300 0 232.814 0 150C0 67.0869 67.1865 0 150 0C232.913 0 300 67.1865 300 150C300.1 232.913 232.913 300 150 300Z" fill="#B5E2C9"/>
        <path d="M242 238.9C241.3 239.4 240.5 239.9 239.8 240.4C239 240.9 238.3 241.4 237.5 241.8C236.8 242.2 236.2 242.6 235.5 243C235.4 243.1 235.3 243.1 235.2 243.2C232.9 244.6 230.5 245.9 228.1 247.1C227.4 247.5 226.6 247.9 225.9 248.2C225.9 248.2 225.8 248.3 225.7 248.3C224.9 248.7 224.1 249.1 223.3 249.5C221.7 250.3 220 251 218.4 251.7C217.6 252.1 216.7 252.4 215.9 252.7C215.1 253 214.2 253.4 213.4 253.7C212.6 254 211.7 254.4 210.9 254.7C210.9 254.7 210.9 254.7 210.8 254.7C210 255 209.1 255.3 208.3 255.6C206.5 256.2 204.6 256.8 202.8 257.4C202.2 257.6 201.5 257.8 200.9 258C199 258.6 197.1 259.1 195.2 259.5C194.5 259.7 193.8 259.8 193 260C191.2 260.4 189.3 260.8 187.5 261.2C187.1 261.3 186.8 261.3 186.4 261.4C185.8 261.5 185.1 261.6 184.5 261.7C183.6 261.8 182.8 262 181.9 262.1C181.5 262.2 181.1 262.2 180.7 262.3C180.2 262.4 179.6 262.5 179 262.5C177.4 262.7 175.7 262.9 174.1 263.1C173.6 263.2 173 263.2 172.5 263.3H172.4C171.7 263.4 171 263.4 170.3 263.5C169.6 263.6 168.9 263.6 168.2 263.6C167.8 263.6 167.3 263.7 166.9 263.7C166.1 263.7 165.4 263.8 164.7 263.8C163.7 263.8 162.8 263.9 161.8 263.9C160.8 263.9 159.9 263.9 158.9 263.9C158.2 263.9 157.5 263.9 156.8 263.9C114.7 263.3 76.6996 245.4 49.6996 217C49.6996 217 49.6996 216.9 49.5996 216.9C52.6996 210.8 64.1996 199.8 76.1996 190.7C91.3996 179.2 112.9 172.1 112.9 172.1C112.9 172.1 127 169.8 179.3 180.7C219.2 189.1 236.2 223.2 242 238.9Z" fill="#FEE4BF"/>
        <path d="M190.4 208.4C188.3 218.7 174.7 224.8 151.8 215.6C123.7 204.2 112.9 172.1 112.9 172.1C111.4 149.1 107.9 129.4 107.9 129.4C140.4 126.6 178.8 164.6 178.8 164.6L183.2 183.4C183.6 185 184.4 186.4 185.6 187.4C187.7 191 191.8 201.8 190.4 208.4Z" fill="#FEE4BF"/>
        <path d="M185.6 187.5C166.5 186.5 152.4 183.7 137.3 156.6C150.1 167.9 165.2 172.2 181.1 174.2L183.2 183.4C183.6 185.1 184.4 186.5 185.6 187.5Z" fill="#EFBDA5"/>
        <path d="M225.1 66.9999C226.9 75.3999 227.8 82.1999 222.9 104.6C218 127 227.4 149.4 203.8 169.9C187.9 183.7 160.1 186.3 137.9 171.2C130.4 166.1 123.5 159 117.9 149.7C113.5 142.4 108.4 135.5 102.7 129.2C94.7996 120.6 85.2996 103.3 89.9996 72.6999C97.5996 22.8999 146.9 17.1999 176 22.6999C205.1 28.1999 220.2 44.7999 225.1 66.9999Z" fill="#FEE4BF"/>
        <path d="M129.4 106.1C129.4 106.1 126.3 91.0999 111.7 92.8999C99.0996 94.4999 94.6996 124.7 123.3 133.1" fill="#FEE4BF"/>
        <path d="M122.4 119.4C122.4 119.4 118.8 117.1 119.2 113.1C119.8 108.4 119.2 105.5 117 104.6C111.5 102.3 110.4 108.7 110.6 109.5" stroke="#423232" stroke-width="3" stroke-miterlimit="10" stroke-linecap="round" stroke-linejoin="round"/>
        <path d="M198.7 129.1C198.7 129.1 202.5 129.3 206.1 125C208.1 122.6 209.8 119.6 208.7 118.7C207.6 117.7 189.5 120.5 188.3 122.9C187.1 125.3 194.1 129.1 198.7 129.1Z" fill="#EFBDA5"/>
        <path d="M201.7 95.5C201.7 95.5 201.9 105 208 115.6C210.7 120.3 206.6 128 197.7 129.3" stroke="#423232" stroke-width="3" stroke-miterlimit="10" stroke-linecap="round" stroke-linejoin="round"/>
        <path opacity="0.42" d="M147.5 134.2C153.188 134.2 157.8 130.394 157.8 125.7C157.8 121.006 153.188 117.2 147.5 117.2C141.811 117.2 137.2 121.006 137.2 125.7C137.2 130.394 141.811 134.2 147.5 134.2Z" fill="#F2A5B2"/>
        <path opacity="0.42" d="M221.3 117.4C221 123 221.1 128.5 220.7 134C216.3 133 213.1 129.7 213.1 125.8C213.1 121.6 216.6 118.2 221.3 117.4Z" fill="#F2A5B2"/>
        <path d="M188.5 160C182.8 163.4 172.7 159.7 168 154" stroke="#423232" stroke-width="3" stroke-miterlimit="10" stroke-linecap="round" stroke-linejoin="round"/>
        <path d="M172.433 107.048C170.033 106.948 168.233 104.948 168.433 102.548L168.533 99.7476C168.633 97.3476 170.633 95.5476 173.033 95.7476C175.433 95.8476 177.233 97.8476 177.033 100.248L176.933 103.048C176.833 105.348 174.833 107.148 172.433 107.048Z" fill="#423232"/>
        <path d="M214.533 108.547C212.333 108.447 210.633 106.547 210.733 104.347L210.833 101.747C210.933 99.5473 212.833 97.8473 215.033 97.9473C217.233 98.0473 218.933 99.9473 218.833 102.147L218.733 104.747C218.633 106.947 216.733 108.647 214.533 108.547Z" fill="#423232"/>
        <path d="M182.133 101.247C182.133 101.247 179.533 97.5474 175.033 96.8474C171.333 96.2474 167.233 98.0475 166.633 100.147" stroke="#423232" stroke-width="3" stroke-miterlimit="10" stroke-linecap="round" stroke-linejoin="round"/>
        <path d="M211.633 102.148C211.633 102.148 211.633 98.9475 216.233 98.9475C220.033 98.9475 221.633 102.448 221.633 102.448" stroke="#423232" stroke-width="3" stroke-miterlimit="10" stroke-linecap="round" stroke-linejoin="round"/>
        <path d="M186.233 85.1474C188.333 85.8474 190.433 83.9474 190.033 81.6474C189.833 80.4474 189.333 79.2474 188.333 78.3474C185.333 75.6474 172.933 73.2475 165.433 76.7475C158.833 79.9475 176.633 81.9474 186.233 85.1474Z" fill="#423232"/>
        <path d="M216.133 86.7475C214.433 87.3475 212.633 85.5475 212.933 83.4475C213.033 82.3475 213.433 81.2475 214.233 80.4475C216.633 78.0475 224.833 76.1475 230.033 79.8475C234.533 82.9475 223.933 83.8475 216.133 86.7475Z" fill="#423232"/>
        <path d="M225.42 96.3298C228.12 81.1298 227.32 75.1298 225.72 68.0298C225.22 65.8298 224.62 63.7298 223.92 61.6298C218.62 57.4298 213.02 54.7298 204.52 53.5298C181.62 50.4298 163.52 52.5298 144.22 56.7298C132.12 59.3298 134.62 101.13 129.92 106.63C129.12 103.83 125.22 92.4298 112.42 94.0298C100.32 95.5298 95.7199 123.53 120.72 133.13C120.52 138.63 115.42 148.83 111.32 151.13C111.32 151.13 110.62 143.83 102.62 134.23C94.6199 124.63 78.6199 99.7298 89.4199 63.3298C100.22 26.9298 149.12 7.92981 194.62 26.4298C202.42 29.6298 208.82 34.1298 213.92 38.8298C225.92 49.8298 232.32 65.8298 230.42 81.9298C229.92 87.3298 228.42 92.5298 225.42 96.3298Z" fill="#423232"/>
        <path d="M93.5197 69.3298C109.867 69.3298 123.12 56.0774 123.12 39.7298C123.12 23.3821 109.867 10.1298 93.5197 10.1298C77.172 10.1298 63.9197 23.3821 63.9197 39.7298C63.9197 56.0774 77.172 69.3298 93.5197 69.3298Z" fill="#423232"/>
        <path d="M232.62 98.7298C229.82 97.5298 225.62 96.5298 220.72 95.8298C221.42 87.9298 219.72 81.9298 219.72 81.9298C219.52 86.0298 218.42 92.8298 218.02 95.4298C211.02 94.6298 203.12 94.1298 196.32 93.9298C195.92 87.9298 194.62 80.9298 194.62 80.9298C194.62 83.8298 194.12 90.3298 193.72 93.8298C192.02 93.8298 190.32 93.7298 188.82 93.7298C187.82 93.7298 186.92 93.7298 185.92 93.7298C185.02 86.2298 182.92 77.3298 182.92 77.3298C183.12 81.2298 182.42 89.5298 182.12 93.7298C157.32 93.9298 135.22 96.4298 135.22 96.4298L133.02 56.7298C142.52 36.6298 219.42 27.6298 227.02 43.4298C240.82 71.8298 232.62 98.7298 232.62 98.7298Z" fill="#423232"/>
        <path d="M232.62 98.7299C232.62 98.7299 228.52 101.03 224.62 100.53C224.62 100.53 225.22 97.4299 225.32 96.6299C225.42 96.6299 231.12 97.7299 232.62 98.7299Z" fill="#423232"/>
        <path d="M276.045 304.289H23.2451C23.2451 304.289 24.7451 257.889 39.9451 224.789C51.4451 199.789 78.5451 185.889 98.7451 178.689C104.445 176.689 109.645 175.189 113.645 174.089C113.645 174.589 113.745 174.989 113.745 175.489C113.745 175.489 124.545 207.589 152.645 218.989C175.545 228.289 189.145 222.089 191.245 211.789C192.545 205.189 188.445 194.389 186.345 190.889C185.145 189.889 184.345 188.389 183.945 186.889L183.145 183.589C185.045 183.189 186.845 182.689 188.645 182.089C189.245 181.889 189.745 181.689 190.345 181.489C203.245 184.889 222.645 192.989 245.545 212.189C271.445 233.789 276.045 304.289 276.045 304.289Z" fill="#7B96DA"/>
        <path d="M143.945 229.389C109.445 213.889 96.045 186.189 98.645 178.689C98.645 178.689 98.645 178.589 98.745 178.489C100.545 174.789 103.445 171.789 107.045 169.689C109.045 168.489 111.245 167.389 113.045 166.789C113.145 168.189 113.545 172.589 113.645 174.089C113.645 174.589 113.745 174.989 113.745 175.489C113.745 175.489 120.145 199.389 148.245 210.789C171.145 220.089 185.345 213.989 186.845 203.589C188.545 192.089 182.045 183.789 182.045 183.789C183.945 183.389 186.945 182.689 188.745 182.089C193.145 187.389 197.645 192.689 199.345 206.689C201.745 226.789 179.645 245.489 143.945 229.389Z" fill="white"/>
        <path d="M72.7451 304.289L68.2451 267.189" stroke="#544D4D" stroke-width="3" stroke-miterlimit="10" stroke-linecap="round" stroke-linejoin="round"/>
        <path d="M247.345 254.589C247.345 254.589 244.345 261.889 245.245 269.189C246.145 276.489 248.745 287.189 245.045 304.289" stroke="#544D4D" stroke-width="3" stroke-miterlimit="10" stroke-linecap="round" stroke-linejoin="round"/>
      </svg>